<?xml version="1.0" encoding="utf-8"?>
<!-- Generator: Adobe Illustrator 17.0.0, SVG Export Plug-In . SVG Version: 6.00 Build 0)  -->
<!DOCTYPE svg PUBLIC "-//W3C//DTD SVG 1.1//EN" "http://www.w3.org/Graphics/SVG/1.1/DTD/svg11.dtd">
<svg version="1.1" id="Layer_1" xmlns="http://www.w3.org/2000/svg" xmlns:xlink="http://www.w3.org/1999/xlink" x="0px" y="0px"
	 width="236px" height="105px" viewBox="0 0 236 105" enable-background="new 0 0 236 105" xml:space="preserve">
<path fill="#FFFFFF" d="M70.192,68.159c0,1.054-0.434,1.736-1.24,2.17c-1.612,0.93-4.836,1.302-7.068,1.302
	c-5.704,0-11.345-1.86-16.243-6.634c-2.17-2.108-6.572-8.432-6.572-17.173c0-7.254,2.542-12.895,6.138-15.747
	c4.712-3.72,9.361-4.092,13.267-4.092c7.998,0,13.019,2.666,14.569,5.022c0.93,1.488,1.24,3.224,1.302,4.092
	c0.062,0.558,0.124,0.93,0.434,0.93c0.434,0,0.558-0.31,0.558-1.302c0-6.2,0.434-7.936,0.434-8.803c0-0.248-0.124-0.496-0.744-0.558
	c-1.55-0.062-3.72-0.31-5.022-0.62c-1.178-0.248-5.58-1.054-9.486-1.054c-4.774,0-10.911,0.434-16.491,3.906
	c-5.518,3.472-10.353,10.477-10.353,20.397c0,7.75,3.596,14.383,7.377,17.669c6.882,6.014,15.685,6.634,20.397,6.634
	c3.596,0,9.176-0.682,13.143-2.79c0.744-0.434,0.806-0.558,0.806-3.348v-6.944c0-2.604,0-4.464,0.124-6.448
	c0.124-2.17,0.62-3.224,2.294-3.534c0.744-0.124,1.116-0.186,1.55-0.186c0.248,0,0.496-0.124,0.496-0.372
	c0-0.372-0.31-0.496-0.992-0.496c-1.86,0-5.766,0.186-6.076,0.186c-0.31,0-4.216-0.186-7.006-0.186
	c-0.682,0-0.992,0.124-0.992,0.496c0,0.248,0.248,0.372,0.496,0.372c0.558,0,1.612,0.062,2.108,0.186
	c2.48,0.682,2.79,1.364,2.79,6.386V68.159z"/>
<path fill="#FFFFFF" d="M95.737,34.122c-0.93-2.418-1.674-4.34-1.674-5.146c0-0.434,0.124-0.93,0.806-1.24
	c0.558-0.248,1.674-0.31,2.356-0.31c0.434,0,0.62-0.124,0.62-0.434s-0.558-0.434-1.674-0.434c-2.356,0-5.146,0.186-5.766,0.186
	c-0.744,0-4.278-0.186-7.254-0.186c-0.992,0-1.612,0.062-1.612,0.434c0,0.248,0.124,0.434,0.496,0.434c0.372,0,1.426,0,2.356,0.248
	c2.17,0.62,3.1,1.302,4.464,4.774l15.189,38.004c1.178,2.976,1.488,3.844,2.232,3.844c0.62,0,0.868-0.992,2.604-4.712
	c1.426-3.038,4.216-9.733,7.998-18.785c3.162-7.626,6.262-15.065,6.944-16.801c1.674-4.216,2.604-5.27,3.41-5.828
	c1.178-0.744,2.542-0.744,2.976-0.744c0.496,0,0.744-0.124,0.744-0.434s-0.372-0.434-1.054-0.434c-1.798,0-4.464,0.186-4.836,0.186
	c-0.744,0-3.596-0.186-6.076-0.186c-0.992,0-1.364,0.124-1.364,0.496c0,0.31,0.31,0.372,0.682,0.372c0.682,0,1.612,0,2.356,0.248
	c0.62,0.31,0.806,0.93,0.806,1.426c0,0.558-0.248,1.426-0.558,2.356c-1.364,4.464-9.671,26.1-13.267,34.408L95.737,34.122z"/>
<path fill="#FFFFFF" d="M145.398,44.538c0-9.671,0-11.407,0.124-13.391c0.124-2.17,0.62-3.224,2.294-3.534
	c0.744-0.124,1.116-0.186,1.55-0.186c0.248,0,0.496-0.124,0.496-0.372c0-0.372-0.31-0.496-0.992-0.496
	c-1.86,0-5.766,0.186-6.076,0.186c-0.31,0-4.216-0.186-6.262-0.186c-0.682,0-0.992,0.124-0.992,0.496
	c0,0.248,0.248,0.372,0.496,0.372c0.434,0,1.24,0.062,1.922,0.248c1.364,0.31,1.984,1.364,2.108,3.472
	c0.124,1.984,0.124,3.72,0.124,13.391v10.911c0,5.952,0,10.849-0.31,13.453c-0.248,1.798-0.558,3.162-1.798,3.41
	c-0.558,0.124-1.302,0.248-1.86,0.248c-0.372,0-0.496,0.186-0.496,0.372c0,0.372,0.31,0.496,0.992,0.496
	c1.86,0,5.766-0.186,6.076-0.186c0.31,0,4.216,0.186,7.626,0.186c0.682,0,0.992-0.186,0.992-0.496c0-0.186-0.124-0.372-0.496-0.372
	c-0.558,0-1.922-0.124-2.79-0.248c-1.86-0.248-2.232-1.612-2.418-3.41c-0.31-2.604-0.31-7.501-0.31-13.453V44.538z"/>
<path fill="#FFFFFF" d="M162.324,66.609c-1.116,3.1-2.356,5.456-5.208,5.828c-0.496,0.062-1.364,0.124-1.798,0.124
	c-0.31,0-0.558,0.124-0.558,0.372c0,0.372,0.372,0.496,1.178,0.496c2.914,0,6.324-0.186,7.006-0.186
	c0.682,0,3.348,0.186,4.836,0.186c0.558,0,0.93-0.124,0.93-0.496c0-0.248-0.186-0.372-0.62-0.372h-0.62
	c-1.054,0-2.356-0.558-2.356-1.798c0-1.116,0.31-2.604,0.868-4.154l3.72-10.973c0.124-0.31,0.31-0.496,0.62-0.496h13.329
	c0.31,0,0.434,0.124,0.558,0.372l5.766,15.251c0.372,0.992,0,1.55-0.372,1.674c-0.248,0.062-0.434,0.186-0.434,0.434
	c0,0.372,0.682,0.372,1.86,0.434c4.278,0.124,8.803,0.124,9.734,0.124c0.682,0,1.24-0.124,1.24-0.496c0-0.31-0.248-0.372-0.62-0.372
	c-0.62,0-1.55-0.062-2.48-0.372c-1.302-0.372-3.1-1.364-5.332-6.882c-3.782-9.423-13.515-35.028-14.445-37.384
	c-0.744-1.922-0.992-2.232-1.364-2.232c-0.372,0-0.62,0.372-1.364,2.418L162.324,66.609z M171.004,52.907
	c-0.186,0-0.31-0.124-0.186-0.434l5.456-16.739c0.31-0.93,0.62-0.93,0.93,0l5.89,16.739c0.062,0.248,0.062,0.434-0.248,0.434
	H171.004z"/>
<path fill-rule="evenodd" clip-rule="evenodd" fill="#FFFFFF" d="M197.5,96.397h34V4H4v92.397h34V97.5H3V3h229.5v94.5h-35
	L197.5,96.397z"/>
<path fill="#FFFFFF" d="M58.714,97.2h2.235v3.076c-0.661,0.16-1.338,0.239-2.03,0.239c-1.276,0-2.243-0.349-2.902-1.046
	c-0.659-0.697-0.988-1.72-0.988-3.069c0-1.285,0.342-2.29,1.025-3.015c0.684-0.725,1.634-1.087,2.851-1.087
	c0.834,0,1.702,0.191,2.604,0.574l0.451-1.025c-0.921-0.392-1.914-0.588-2.98-0.588c-1.053,0-1.971,0.206-2.755,0.619
	c-0.784,0.413-1.384,1.01-1.801,1.791c-0.417,0.782-0.625,1.692-0.625,2.731c0,1.622,0.422,2.884,1.265,3.784
	c0.843,0.9,2.021,1.35,3.534,1.35c0.72,0,1.354-0.043,1.9-0.13c0.547-0.087,1.085-0.214,1.613-0.383v-4.86h-3.397V97.2z"/>
<path fill="#FFFFFF" d="M87.918,97.241l2.42,4.156h1.374l-2.714-4.491c1.34-0.465,2.01-1.358,2.01-2.68
	c0-0.943-0.293-1.65-0.879-2.119c-0.586-0.469-1.491-0.704-2.717-0.704H84.67v9.994h1.162v-4.156H87.918z M85.833,92.422h1.511
	c0.861,0,1.487,0.146,1.877,0.438c0.39,0.292,0.584,0.768,0.584,1.429c0,0.652-0.191,1.14-0.574,1.466
	c-0.383,0.326-0.984,0.489-1.805,0.489h-1.593V92.422z"/>
<path fill="#FFFFFF" d="M120.95,92.613c-0.807-0.911-1.928-1.367-3.363-1.367c-1.477,0-2.616,0.448-3.418,1.343
	s-1.203,2.157-1.203,3.784c0,1.641,0.4,2.911,1.2,3.811c0.8,0.9,1.936,1.35,3.408,1.35c1.44,0,2.565-0.458,3.374-1.374
	c0.809-0.916,1.213-2.174,1.213-3.773C122.16,94.782,121.756,93.524,120.95,92.613z M115.06,93.334
	c0.576-0.7,1.419-1.049,2.526-1.049c1.103,0,1.936,0.348,2.499,1.043c0.563,0.695,0.844,1.715,0.844,3.059
	c0,1.358-0.283,2.386-0.848,3.083c-0.565,0.697-1.401,1.046-2.509,1.046c-1.098,0-1.936-0.35-2.512-1.049
	c-0.576-0.7-0.865-1.726-0.865-3.08C114.196,95.051,114.484,94.034,115.06,93.334z"/>
<path fill="#FFFFFF" d="M150.933,91.403v6.508c0,0.839-0.228,1.482-0.684,1.931c-0.456,0.449-1.105,0.673-1.948,0.673
	c-0.884,0-1.554-0.223-2.01-0.67c-0.456-0.447-0.684-1.087-0.684-1.921v-6.521h-1.162v6.439c0,1.148,0.329,2.051,0.988,2.707
	c0.658,0.656,1.589,0.984,2.792,0.984c1.203,0,2.149-0.326,2.837-0.978c0.688-0.652,1.032-1.547,1.032-2.687v-6.467H150.933z"/>
<path fill="#FFFFFF" d="M177.491,91.403H174.9v9.994h1.162v-3.931h1.176c1.285,0,2.273-0.272,2.963-0.817
	c0.69-0.544,1.036-1.323,1.036-2.334C181.237,92.374,179.989,91.403,177.491,91.403L177.491,91.403z M176.063,92.408h1.299
	c0.916,0,1.59,0.162,2.023,0.485c0.433,0.324,0.649,0.816,0.649,1.477c0,0.734-0.23,1.267-0.69,1.6
	c-0.46,0.333-1.206,0.499-2.235,0.499h-1.046V92.408z"/>
</svg>
